#!OML:ASF F:\VICON\USERDATA\Patient Classification 1\PLAYGROUND\JustinFriday\JustinFriday.ASF
:FULLY-SPECIFIED
:DEGREES
3280
root 5.98743 17.834 24.9876 -886.516 -109.741 162.468
lowerback 12.4794 0.89868 1.62714
upperback 1.87652 1.52202 3.84808
thorax -5.09102 0.707782 2.87411
lowerneck -3.88569 -6.76892 -5.6984
upperneck 3.74396 -9.09488 7.13457
head 2.55557 -4.4547 2.98849
rclavicle -4.07509e-015 7.95139e-016
rhumerus -22.4885 -6.02046 -81.3308
rradius 35.3655
rwrist 360.418
rhand -7.78866 -23.1939
rfingers 7.12502
rthumb 18.1122 667.629
lclavicle -4.07509e-015 7.95139e-016
lhumerus -23.8441 6.30847 80.9734
lradius 41.3858
lwrist 0.373524
lhand -13.9243 -9.59174
lfingers 7.12502
lthumb 12.2021 20.0323
rfemur -16.7301 -17.1115 19.9931
rtibia 41.49
rfoot -13.2214 -19.2846
rtoes 9.88986
lfemur -12.7939 2.01764 -9.72434
ltibia 33.8811
lfoot -15.0682 -12.6799
ltoes -17.2136
3281
root 6.07577 17.8429 25.0218 -885.591 -108.837 161.521
lowerback 12.4389 1.07264 1.65398
upperback 1.88681 1.75106 3.78301
thorax -5.06381 0.819699 2.75199
lowerneck -4.0336 -6.68567 -5.57306
upperneck 3.93892 -8.99383 7.10675
head 2.63204 -4.39912 2.95526
rclavicle -1.98785e-015 -1.43125e-014
rhumerus -22.5806 -6.68269 -81.69
rradius 34.843
rwrist 360.75
rhand -7.07548 -21.3341
rfingers 7.12502
rthumb 18.7982 669.554
lclavicle -1.98785e-015 -1.43125e-014
lhumerus -23.6745 6.42846 80.4304
lradius 41.4326
lwrist 1.62373
lhand -14.2882 -9.34961
lfingers 7.12502
lthumb 11.8512 20.295
rfemur -16.5712 -17.402 20.3416
rtibia 42.6341
rfoot -13.2574 -18.2688
rtoes 11.5334
lfemur -12.8111 2.54587 -9.78122
ltibia 33.8247
lfoot -14.5858 -12.6798
ltoes -16.5457
3282
root 6.16128 17.8462 25.05 -884.691 -108.291 160.466
lowerback 12.3851 1.13187 1.70829
upperback 1.97237 1.83028 3.85145
thorax -4.94749 0.856406 2.78112
lowerneck -4.08348 -6.56681 -5.46803
upperneck 3.99849 -8.8293 6.91584
head 2.63132 -4.31851 2.87776
rclavicle 3.07619e-014 -2.10712e-014
rhumerus -22.5989 -6.59262 -82.102
rradius 34.5177
rwrist 360.109
rhand -7.23973 -22.6401
rfingers 7.12502
rthumb 18.6402 668.233
lclavicle 3.07619e-014 -2.10712e-014
lhumerus -23.5452 6.88935 80.0035
lradius 41.5385
lwrist 2.59932
lhand -14.7169 -9.22475
lfingers 7.12502
lthumb 11.4378 20.4433
rfemur -16.21 -18.0606 20.672
rtibia 43.8081
rfoot -13.3208 -17.0842
rtoes 9.4851
lfemur -12.7453 2.69643 -9.69398
ltibia 33.7212
lfoot -14.2622 -12.5426
ltoes -17.369
3283
root 6.24424 17.8528 25.0782 -884.041 -107.8 159.724
lowerback 12.1852 1.10661 1.59149
upperback 2.01918 1.77319 3.92226
thorax -4.79144 0.830134 2.93359
lowerneck -3.94517 -6.38099 -5.40066
upperneck 4.05097 -8.58226 6.75014
head 2.59212 -4.20073 2.82563
rclavicle -2.46493e-014 -1.23246e-014
rhumerus -22.5779 -7.04167 -82.431
rradius 33.9271
rwrist 360.204
rhand -7.50197 -23.7019
rfingers 7.12502
rthumb 18.388 667.147
lclavicle -2.46493e-014 -1.23246e-014
lhumerus -23.5587 7.51768 79.4747
lradius 41.5604
lwrist 3.57415
lhand -15.464 -8.98292
lfingers 7.12502
lthumb 10.7172 20.7237
rfemur -15.8437 -18.606 20.9065
rtibia 44.9723
rfoot -13.1068 -16.2909
rtoes 8.54301
lfemur -12.7112 2.93374 -9.71988
ltibia 33.5663
lfoot -14.3221 -12.4421
ltoes -19.0352
3284
root 6.32969 17.8553 25.1079 -883.372 -107.327 159.167
lowerback 11.86 1.13031 1.53569
upperback 2.00913 1.78686 3.92471
thorax -4.62442 0.838826 2.96884
lowerneck -4.17145 -6.27622 -5.37931
upperneck 4.42882 -8.44729 6.6527
head 2.74527 -4.12904 2.7866
rclavicle -3.3694e-014 -2.66371e-014
rhumerus -22.5144 -8.37954 -82.5813
rradius 33.1266
rwrist 360.856
rhand -8.7093 -21.1273
rfingers 7.12502
rthumb 17.2262 669.616
lclavicle -3.3694e-014 -2.66371e-014
lhumerus -23.5124 7.93273 78.9372
lradius 41.5662
lwrist 4.36949
lhand -16.1259 -8.75904
lfingers 7.12502
lthumb 10.0787 20.9796
rfemur -15.633 -19.0777 21.174
rtibia 46.0878
rfoot -12.3428 -15.8628
rtoes 7.88945
lfemur -12.917 3.12376 -9.84423
ltibia 33.4215
lfoot -14.2386 -12.3656
ltoes -19.4918
3285
root 6.41639 17.856 25.1362 -882.88 -106.963 158.751
lowerback 11.6042 1.09268 1.44585
upperback 2.03364 1.71437 3.89408
thorax -4.45568 0.804758 3.00132
lowerneck -4.52461 -6.10841 -4.9886
upperneck 4.7983 -8.23168 6.33815
head 2.88108 -4.01423 2.60812
rclavicle 2.77305e-014 1.74931e-014
rhumerus -22.3331 -9.25285 -83.0263
rradius 32.3724
rwrist 360.186
rhand -8.93625 -21.568
rfingers 7.12502
rthumb 17.0078 669.157
lclavicle 2.77305e-014 1.74931e-014
lhumerus -23.3927 8.52362 78.2008
lradius 41.5448
lwrist 5.00434
lhand -16.2566 -8.53811
lfingers 7.12502
lthumb 9.9526 21.2066
rfemur -15.2609 -19.4389 21.4263
rtibia 47.1617
rfoot -11.4212 -15.5743
rtoes 4.53151
lfemur -13.1193 3.0361 -9.97696
ltibia 33.3159
lfoot -13.9776 -12.2019
ltoes -18.9414
3286
root 6.50628 17.8577 25.1636 -883.147 -106.52 159.072
lowerback 11.4762 1.03528 1.06283
upperback 2.02383 1.58578 3.76486
thorax -4.39633 0.748128 3.10278
lowerneck -4.61513 -5.9102 -4.49448
upperneck 4.93138 -7.99038 6.13309
head 2.88882 -3.88859 2.45888
rclavicle 1.39149e-015 -2.38542e-014
rhumerus -22.2843 -9.41838 -83.7767
rradius 31.7582
rwrist 358.001
rhand -12.2193 -20.3564
rfingers 7.12502
rthumb 13.8456 670.124
lclavicle 1.39149e-015 -2.38542e-014
lhumerus -23.3241 9.2671 77.3234
lradius 41.3446
lwrist 5.48246
lhand -16.436 -8.20667
lfingers 7.12502
lthumb 9.77948 21.5463
rfemur -14.7993 -19.7924 21.3525
rtibia 48.2539
rfoot -10.5519 -14.9485
rtoes -1.06651
lfemur -13.2696 3.09365 -10.3478
ltibia 33.2358
lfoot -13.9686 -12.0662
ltoes -19.1242
3287
root 6.59945 17.8478 25.1859 -883.939 -106.055 159.901
lowerback 11.5145 1.04455 0.594386
upperback 1.90614 1.54771 3.64257
thorax -4.54817 0.739758 3.24473
lowerneck -4.40703 -5.80988 -4.48583
upperneck 4.96643 -7.87205 6.21039
head 2.85866 -3.83153 2.49467
rclavicle 3.89369e-014 -2.34566e-014
rhumerus -22.6191 -9.00338 -84.3985
rradius 31.4096
rwrist 355.069
rhand -15.7208 -20.6312
rfingers 7.12502
rthumb 10.4695 669.649
lclavicle 3.89369e-014 -2.34566e-014
lhumerus -23.4229 9.55875 76.6439
lradius 41.1106
lwrist 6.08006
lhand -16.9133 -7.83593
lfingers 7.12502
lthumb 9.31904 21.9381
rfemur -14.29 -20.4682 21.0006
rtibia 49.3687
rfoot -9.97682 -13.8283
rtoes -4.1498
lfemur -13.4445 3.32641 -10.8589
ltibia 33.1665
lfoot -14.0348 -12.0093
ltoes -19.8864
3288
root 6.69211 17.8411 25.2049 -883.763 -105.598 159.747
lowerback 11.6012 1.14589 0.39308
upperback 1.70431 1.67548 3.73725
thorax -4.82394 0.811174 3.43823
lowerneck -4.23883 -5.78252 -4.86209
upperneck 5.16154 -7.82396 6.18026
head 2.90899 -3.8174 2.55852
rclavicle 1.22501e-014 -1.70955e-014
rhumerus -23.1565 -8.03905 -84.6599
rradius 31.2061
rwrist 351.936
rhand -19.274 -20.3754
rfingers 7.12502
rthumb 7.04066 669.762
lclavicle 1.22501e-014 -1.70955e-014
lhumerus -23.6333 9.68315 76.2766
lradius 40.8567
lwrist 6.72899
lhand -17.2698 -7.79179
lfingers 7.12502
lthumb 8.97501 21.9973
rfemur -13.773 -20.8059 20.9564
rtibia 50.4839
rfoot -9.91568 -12.918
rtoes -2.89034
lfemur -13.6013 3.22812 -11.0742
ltibia 33.0292
lfoot -13.7105 -11.6828
ltoes -19.7952
3289
root 6.78121 17.8478 25.2242 -883.51 -105.235 159.503
lowerback 11.7001 1.24732 0.136579
upperback 1.48549 1.80056 3.91919
thorax -5.13079 0.884115 3.75584
lowerneck -4.25118 -5.76818 -5.24954
upperneck 5.58126 -7.79346 6.09499
head 3.06868 -3.81034 2.59957
rclavicle -7.13637e-014 -1.63003e-014
rhumerus -23.5908 -7.7512 -84.5918
rradius 30.8141
rwrist 350.235
rhand -20.8403 -20.2388
rfingers 7.12502
rthumb 5.52855 669.853
lclavicle -7.13637e-014 -1.63003e-014
lhumerus -23.9203 10.1365 76.0077
lradius 40.5982
lwrist 7.06159
lhand -17.5402 -7.86102
lfingers 7.12502
lthumb 8.71405 21.9391
rfemur -13.178 -20.8665 20.9823
rtibia 51.5866
rfoot -10.0683 -12.0842
rtoes -1.08018
lfemur -13.6321 2.68723 -11.1893
ltibia 32.7557
lfoot -12.932 -11.4289
ltoes -18.0906
3290
root 6.86602 17.8531 25.244 -883.871 -104.846 159.807
lowerback 11.3222 1.18926 0.188353
upperback 1.64477 1.70362 3.64391
thorax -4.73623 0.830247 3.45389
lowerneck -4.16707 -5.66057 -5.20159
upperneck 5.48346 -7.6781 6.44028
head 3.02905 -3.74504 2.71709
rclavicle -1.63252e-014 -2.3059e-014
rhumerus -23.3172 -9.29712 -84.8748
rradius 30.0814
rwrist 351.485
rhand -21.4349 -21.9355
rfingers 7.12502
rthumb 4.95442 668.142
lclavicle -1.63252e-014 -2.3059e-014
lhumerus -23.7523 10.2588 75.1026
lradius 40.472
lwrist 7.71675
lhand -17.7756 -7.3292
lfingers 7.12502
lthumb 8.48686 22.4803
rfemur -12.3823 -20.9411 20.7477
rtibia 52.545
rfoot -9.93389 -11.122
rtoes -1.78303
lfemur -13.5934 2.64799 -11.4529
ltibia 32.4865
lfoot -12.3399 -11.6392
ltoes -16.115
3291
root 6.96161 17.8449 25.2478 -883.54 -104.409 159.653
lowerback 11.0604 1.22185 0.0361172
upperback 1.59321 1.72426 3.53613
thorax -4.6471 0.844355 3.42589
lowerneck -4.06228 -5.54974 -5.18444
upperneck 5.45327 -7.54306 6.56163
head 2.99594 -3.67687 2.76506
rclavicle -2.43014e-014 -3.06128e-014
rhumerus -23.2163 -11.8659 -84.4531
rradius 29.2685
rwrist 355.879
rhand -17.709 -21.8456
rfingers 7.12502
rthumb 8.55115 668.348
lclavicle -2.43014e-014 -3.06128e-014
lhumerus -23.8139 9.86486 74.3587
lradius 40.4207
lwrist 8.72683
lhand -18.1026 -6.7213
lfingers 7.12502
lthumb 8.17134 23.1007
rfemur -11.9307 -20.6458 20.8482
rtibia 53.4348
rfoot -9.59943 -10.4807
rtoes -3.23687
lfemur -13.9559 3.64205 -11.7014
ltibia 32.11
lfoot -12.2737 -11.8334
ltoes -17.7471
3292
root 7.05186 17.8808 25.2488 -882.541 -103.477 158.833
lowerback 10.8566 1.44883 -0.409544
upperback 1.49704 1.97906 3.57097
thorax -4.66676 0.981574 3.67944
lowerneck -4.35067 -5.41342 -5.13188
upperneck 5.87108 -7.35824 6.35123
head 3.16674 -3.58255 2.68545
rclavicle 3.56322e-014 2.42517e-014
rhumerus -23.3236 -14.7835 -83.4034
rradius 28.5018
rwrist 363.001
rhand -11.0776 -22.0357
rfingers 7.12502
rthumb 14.9457 668.524
lclavicle 3.56322e-014 2.42517e-014
lhumerus -23.7895 11.3589 73.6022
lradius 39.8506
lwrist 7.83555
lhand -17.9849 -6.94529
lfingers 7.12502
lthumb 8.28491 22.8723
rfemur -11.4194 -19.6848 21.0127
rtibia 54.142
rfoot -9.1394 -9.92829
rtoes -3.36562
lfemur -13.9897 3.99228 -11.7791
ltibia 31.7014
lfoot -10.9593 -12.1167
ltoes -11.856
3293
root 7.13603 17.891 25.2603 -883.576 -103.802 159.619
lowerback 10.9555 1.17313 -0.491096
upperback 1.52817 1.6 3.51065
thorax -4.6632 0.794559 3.71825
lowerneck -4.63905 -5.28439 -5.06388
upperneck 6.26714 -7.20136 6.36095
head 3.34497 -3.49615 2.67789
rclavicle -3.42655e-014 -1.47101e-014
rhumerus -23.5157 -14.1674 -83.885
rradius 28.2312
rwrist 360.58
rhand -13.9159 -21.2324
rfingers 7.12502
rthumb 12.2102 669.144
lclavicle -3.42655e-014 -1.47101e-014
lhumerus -23.8382 12.295 72.7422
lradius 39.4743
lwrist 7.39589
lhand -18.071 -7.23967
lfingers 7.12502
lthumb 8.20183 22.5811
rfemur -10.1779 -19.7653 20.9321
rtibia 54.7657
rfoot -8.7571 -9.59971
rtoes -5.21046
lfemur -13.8413 3.92837 -11.9879
ltibia 31.1888
lfoot -10.3719 -12.563
ltoes -8.95583
3294
root 7.2301 17.8955 25.2639 -880.842 -102.737 157.177
lowerback 10.5302 1.43236 -0.403224
upperback 1.42389 1.95312 3.42517
thorax -4.55436 0.969497 3.53022
lowerneck -4.72155 -5.18506 -4.87224
upperneck 6.46739 -7.10756 6.53616
head 3.42378 -3.43782 2.70619
rclavicle 9.46712e-015 5.96354e-015
rhumerus -23.7235 -14.299 -84.2504
rradius 28.0233
rwrist 359.298
rhand -15.0215 -23.4188
rfingers 7.12502
rthumb 11.1441 666.897
lclavicle 9.46712e-015 5.96354e-015
lhumerus -23.9079 12.3895 71.8574
lradius 39.2065
lwrist 7.55054
lhand -18.8272 -7.57581
lfingers 7.12502
lthumb 7.47194 22.2722
rfemur -9.94283 -18.3891 21.4743
rtibia 55.3563
rfoot -7.77765 -9.2998
rtoes -7.36315
lfemur -14.0462 4.78443 -11.9074
ltibia 30.6606
lfoot -10.2216 -12.025
ltoes -12.7117
